<svg width="141" height="33" viewBox="0 0 141 33" fill="none" xmlns="http://www.w3.org/2000/svg">
<rect width="33" height="33" rx="10" fill="#0D6EFD"/>
<path d="M21.325 11.1V23H18.571V18.121H13.165V23H10.411V11.1H13.165V15.792H18.571V11.1H21.325Z" fill="white"/>
<path d="M48.325 11.1V23H45.571V18.121H40.165V23H37.411V11.1H40.165V15.792H45.571V11.1H48.325ZM54.6425 13.718C56.0592 13.718 57.1472 14.058 57.9065 14.738C58.6658 15.4067 59.0455 16.421 59.0455 17.781V23H56.5635V21.861C56.0648 22.711 55.1355 23.136 53.7755 23.136C53.0728 23.136 52.4608 23.017 51.9395 22.779C51.4295 22.541 51.0385 22.2123 50.7665 21.793C50.4945 21.3737 50.3585 20.8977 50.3585 20.365C50.3585 19.515 50.6758 18.8463 51.3105 18.359C51.9565 17.8717 52.9482 17.628 54.2855 17.628H56.3935C56.3935 17.05 56.2178 16.608 55.8665 16.302C55.5152 15.9847 54.9882 15.826 54.2855 15.826C53.7982 15.826 53.3165 15.9053 52.8405 16.064C52.3758 16.2113 51.9792 16.4153 51.6505 16.676L50.6985 14.823C51.1972 14.4717 51.7922 14.1997 52.4835 14.007C53.1862 13.8143 53.9058 13.718 54.6425 13.718ZM54.4385 21.351C54.8918 21.351 55.2942 21.249 55.6455 21.045C55.9968 20.8297 56.2462 20.518 56.3935 20.11V19.175H54.5745C53.4865 19.175 52.9425 19.532 52.9425 20.246C52.9425 20.586 53.0728 20.858 53.3335 21.062C53.6055 21.2547 53.9738 21.351 54.4385 21.351ZM64.3527 14.058H66.6987V16.098H64.4207V23H61.7687V16.098H60.3577V14.058H61.7687V13.65C61.7687 12.6073 62.0747 11.78 62.6867 11.168C63.31 10.556 64.1827 10.25 65.3047 10.25C65.7013 10.25 66.0753 10.2953 66.4267 10.386C66.7893 10.4653 67.0897 10.5843 67.3277 10.743L66.6307 12.664C66.3247 12.4487 65.9677 12.341 65.5597 12.341C64.755 12.341 64.3527 12.783 64.3527 13.667V14.058ZM69.3847 13.854H72.0367V23H69.3847V13.854ZM70.7107 12.579C70.2233 12.579 69.8267 12.4373 69.5207 12.154C69.2147 11.8707 69.0617 11.5193 69.0617 11.1C69.0617 10.6807 69.2147 10.3293 69.5207 10.046C69.8267 9.76267 70.2233 9.621 70.7107 9.621C71.198 9.621 71.5947 9.757 71.9007 10.029C72.2067 10.301 72.3597 10.641 72.3597 11.049C72.3597 11.491 72.2067 11.8593 71.9007 12.154C71.5947 12.4373 71.198 12.579 70.7107 12.579ZM83.8105 10.386V23H81.2775V21.946C80.6202 22.7393 79.6682 23.136 78.4215 23.136C77.5602 23.136 76.7782 22.9433 76.0755 22.558C75.3842 22.1727 74.8402 21.623 74.4435 20.909C74.0468 20.195 73.8485 19.3677 73.8485 18.427C73.8485 17.4863 74.0468 16.659 74.4435 15.945C74.8402 15.231 75.3842 14.6813 76.0755 14.296C76.7782 13.9107 77.5602 13.718 78.4215 13.718C79.5888 13.718 80.5012 14.0863 81.1585 14.823V10.386H83.8105ZM78.8805 20.96C79.5492 20.96 80.1045 20.7333 80.5465 20.28C80.9885 19.8153 81.2095 19.1977 81.2095 18.427C81.2095 17.6563 80.9885 17.0443 80.5465 16.591C80.1045 16.1263 79.5492 15.894 78.8805 15.894C78.2005 15.894 77.6395 16.1263 77.1975 16.591C76.7555 17.0443 76.5345 17.6563 76.5345 18.427C76.5345 19.1977 76.7555 19.8153 77.1975 20.28C77.6395 20.7333 78.2005 20.96 78.8805 20.96ZM93.796 20.96V23H85.636V21.402L90.294 15.894H85.755V13.854H93.643V15.452L88.985 20.96H93.796ZM98.0285 15.061C98.3458 14.619 98.7708 14.2847 99.3035 14.058C99.8475 13.8313 100.471 13.718 101.173 13.718V16.166C100.879 16.1433 100.68 16.132 100.578 16.132C99.8192 16.132 99.2242 16.3473 98.7935 16.778C98.3628 17.1973 98.1475 17.832 98.1475 18.682V23H95.4955V13.854H98.0285V15.061ZM111.983 10.386V23H109.45V21.946C108.793 22.7393 107.841 23.136 106.594 23.136C105.733 23.136 104.951 22.9433 104.248 22.558C103.557 22.1727 103.013 21.623 102.616 20.909C102.22 20.195 102.021 19.3677 102.021 18.427C102.021 17.4863 102.22 16.659 102.616 15.945C103.013 15.231 103.557 14.6813 104.248 14.296C104.951 13.9107 105.733 13.718 106.594 13.718C107.762 13.718 108.674 14.0863 109.331 14.823V10.386H111.983ZM107.053 20.96C107.722 20.96 108.277 20.7333 108.719 20.28C109.161 19.8153 109.382 19.1977 109.382 18.427C109.382 17.6563 109.161 17.0443 108.719 16.591C108.277 16.1263 107.722 15.894 107.053 15.894C106.373 15.894 105.812 16.1263 105.37 16.591C104.928 17.0443 104.707 17.6563 104.707 18.427C104.707 19.1977 104.928 19.8153 105.37 20.28C105.812 20.7333 106.373 20.96 107.053 20.96ZM129.126 13.854L125.811 23H123.261L121.204 17.322L119.079 23H116.529L113.231 13.854H115.73L117.889 20.042L120.133 13.854H122.377L124.553 20.042L126.78 13.854H129.126ZM135.918 13.718C137.051 13.718 137.963 14.058 138.655 14.738C139.357 15.418 139.709 16.4267 139.709 17.764V23H137.057V18.172C137.057 17.4467 136.898 16.9083 136.581 16.557C136.263 16.1943 135.804 16.013 135.204 16.013C134.535 16.013 134.002 16.2227 133.606 16.642C133.209 17.05 133.011 17.662 133.011 18.478V23H130.359V13.854H132.892V14.925C133.243 14.5397 133.679 14.245 134.201 14.041C134.722 13.8257 135.294 13.718 135.918 13.718Z" fill="white"/>
</svg>
